<?xml version="1.0" encoding="UTF-8"?>
<svg xmlns="http://www.w3.org/2000/svg" viewBox="0 0 24 24">
    <path xmlns="http://www.w3.org/2000/svg" fill="currentColor" fill-rule="evenodd"
        clip-rule="evenodd"
        d="M3.31579 3.31579C2.89474 3.73684 2.89474 4.42105 3.31579 4.84211L10.4737 12L3.31579 19.1579C2.89474 19.5789 2.89474 20.2632 3.31579 20.6842C3.73684 21.1053 4.42105 21.1053 4.84211 20.6842L12 13.5263L19.1579 20.6842C19.5789 21.1053 20.2632 21.1053 20.6842 20.6842C21.1053 20.2632 21.1053 19.5789 20.6842 19.1579L13.5263 12L20.6842 4.84211C21.1053 4.42105 21.1053 3.73684 20.6842 3.31579C20.2632 2.89474 19.5789 2.89474 19.1579 3.31579L12 10.4737L4.84211 3.31579C4.42105 2.89474 3.73684 2.89474 3.31579 3.31579Z" />
</svg>