<?xml version="1.0" encoding="UTF-8"?>
<svg id="Layer_1" data-name="Layer 1" xmlns="http://www.w3.org/2000/svg" viewBox="0 0 32 32">
  <defs>
    <style>
      .cls-1 {
        fill: #3387c5;
      }
    </style>
  </defs>
  <polygon class="cls-1" points="23 15.94 31 15.94 27 20.94 23 15.94"/>
  <path class="cls-1" d="M15,2.94c7.18,0,13,5.82,13,13,0,.38-.02.76-.05,1.13-.45-.17-.94-.28-1.51-.28-.18,0-.33.03-.49.05.02-.3.06-.59.06-.9,0-6.07-4.93-11-11-11S4,9.87,4,15.94s4.93,11,11,11c2.68,0,5.13-.96,7.04-2.56l1.42,1.42c-2.27,1.95-5.23,3.14-8.46,3.14-7.18,0-13-5.82-13-13S7.82,2.94,15,2.94Z"/>
</svg>