<?xml version="1.0" encoding="UTF-8"?>
<svg id="Layer_1" data-name="Layer 1" xmlns="http://www.w3.org/2000/svg" viewBox="0 0 16 16">
  <defs>
    <style>
      .cls-1 {
        fill: #3387c5;
      }
    </style>
  </defs>
  <polygon class="cls-1" points="11 8.02 16 8.02 13.5 11.02 11 8.02"/>
  <path class="cls-1" d="M7.5,2.02c3.59,0,6.5,2.91,6.5,6.5,0,.19-.01.38-.03.57-.22-.09-.47-.14-.76-.14-.09,0-.17.02-.25.02.01-.15.03-.3.03-.45,0-3.03-2.47-5.5-5.5-5.5s-5.5,2.47-5.5,5.5,2.47,5.5,5.5,5.5c1.34,0,2.57-.48,3.52-1.28l.71.71c-1.14.98-2.61,1.57-4.23,1.57-3.59,0-6.5-2.91-6.5-6.5S3.91,2.02,7.5,2.02Z"/>
</svg>