<?xml version="1.0" encoding="UTF-8"?>
<svg id="Layer_1" data-name="Layer 1" xmlns="http://www.w3.org/2000/svg" viewBox="0 0 24 24">
  <g id="root">
    <defs>
      <style>
        .cls-1 {
        fill: #3387c5;
        }
      </style>
    </defs>
    <polygon class="cls-1" points="16.67 12.33 22 12.33 19.33 15.67 16.67 12.33" />
    <path class="cls-1"
      d="M11.33,3.67c4.79,0,8.67,3.88,8.67,8.67,0,.26-.01.51-.04.76-.3-.11-.63-.19-1.01-.19-.12,0-.22.02-.33.03.02-.2.04-.4.04-.6,0-4.04-3.29-7.33-7.33-7.33s-7.33,3.29-7.33,7.33,3.29,7.33,7.33,7.33c1.78,0,3.42-.64,4.69-1.71l.95.95c-1.52,1.3-3.48,2.09-5.64,2.09-4.79,0-8.67-3.88-8.67-8.67S6.55,3.67,11.33,3.67Z" />
  </g>
</svg>