<?xml version="1.0" encoding="UTF-8"?>
<svg id="Layer_1" data-name="Layer 1" xmlns="http://www.w3.org/2000/svg" viewBox="0 0 32 32">
  <path d="M16,4c6.89,0,10.68,1.99,11,2.77v18.46c-.32.78-4.11,2.77-11,2.77s-10.68-1.99-11-2.77V6.77c.32-.78,4.11-2.77,11-2.77M16,2C8.82,2,3,4.12,3,6.74v18.53c0,2.62,5.82,4.74,13,4.74s13-2.12,13-4.74V6.74c0-2.62-5.82-4.74-13-4.74h0Z" fill="#3387c5"/>
  <path d="M16,4c6.85,0,10.87,2.13,11,3-.13.87-4.15,3-11,3s-10.87-2.13-11-3c.13-.87,4.15-3,11-3M16,2C8.82,2,3,4.24,3,7s5.82,5,13,5,13-2.24,13-5S23.18,2,16,2h0Z" fill="#3387c5"/>
  <path d="M28.37,17.81c-.29.59-.72,1.08-1.28,1.44,0,0,0,.01.01.01-.58.86-4.34,2.74-11.1,2.74s-10.53-1.87-11.1-2.74c0,0,0,0,0,0-.6-.29-1.06-.75-1.4-1.29-.32.41-.51.85-.51,1.3,0,2.62,5.82,4.74,13,4.74s13-2.12,13-4.74c0-.51-.22-.99-.63-1.45Z" fill="#3387c5"/>
  <path d="M28.37,11.81c-.29.59-.72,1.08-1.28,1.44,0,0,0,.01.01.01-.58.86-4.34,2.74-11.1,2.74s-10.53-1.87-11.1-2.74c0,0,0,0,0,0-.6-.29-1.06-.75-1.4-1.29-.32.41-.51.85-.51,1.3,0,2.62,5.82,4.74,13,4.74s13-2.12,13-4.74c0-.51-.22-.99-.63-1.45Z" fill="#3387c5"/>
</svg>