<?xml version="1.0" encoding="UTF-8"?>
<svg id="Layer_1" data-name="Layer 1" xmlns="http://www.w3.org/2000/svg" viewBox="0 0 24 24">
  <path d="M12.12,3.38c5.24,0,8.11,1.51,8.36,2.11v14.02c-.24.59-3.12,2.11-8.36,2.11s-8.11-1.51-8.36-2.11V5.49c.24-.59,3.12-2.11,8.36-2.11M12.12,1.87C6.67,1.87,2.25,3.48,2.25,5.46v14.07c0,1.99,4.42,3.6,9.88,3.6s9.87-1.61,9.87-3.6V5.46c0-1.99-4.42-3.6-9.87-3.6h0Z" fill="#3387c5"/>
  <path d="M12.12,3.38c5.2,0,8.26,1.62,8.36,2.28-.1.66-3.15,2.28-8.36,2.28S3.87,6.32,3.77,5.67c.1-.66,3.15-2.28,8.36-2.28M12.12,1.87C6.67,1.87,2.25,3.57,2.25,5.66s4.42,3.8,9.88,3.8,9.87-1.7,9.87-3.8-4.42-3.8-9.87-3.8h0Z" fill="#3387c5"/>
  <path d="M21.52,13.88c-.22.45-.55.82-.97,1.09,0,0,0,0,0,.01-.44.66-3.3,2.08-8.43,2.08s-8-1.42-8.43-2.08c0,0,0,0,0,0-.46-.22-.8-.57-1.06-.98-.24.31-.38.64-.38.99,0,1.99,4.42,3.6,9.88,3.6s9.87-1.61,9.87-3.6c0-.38-.17-.75-.48-1.1Z" fill="#3387c5"/>
  <path d="M21.52,9.32c-.22.45-.55.82-.97,1.09,0,0,0,0,0,.01-.44.66-3.3,2.08-8.43,2.08s-8-1.42-8.43-2.08c0,0,0,0,0,0-.46-.22-.8-.57-1.06-.98-.24.31-.38.64-.38.99,0,1.99,4.42,3.6,9.88,3.6s9.87-1.61,9.87-3.6c0-.38-.17-.75-.48-1.1Z" fill="#3387c5"/>
</svg>