<?xml version="1.0" encoding="UTF-8"?>
<svg id="Layer_1" data-name="Layer 1" xmlns="http://www.w3.org/2000/svg" viewBox="0 0 16 16">
  <path d="M8,2c3.08,0,4.8.86,5,1.22v9.56c-.2.36-1.92,1.22-5,1.22s-4.8-.86-5-1.22V3.22c.2-.36,1.92-1.22,5-1.22M8,1C4.69,1,2,1.98,2,3.19v9.63c0,1.21,2.69,2.19,6,2.19s6-.98,6-2.19V3.19c0-1.21-2.69-2.19-6-2.19h0Z" fill="#3387c5"/>
  <path d="M8,2c3.28,0,5,1.11,5,1.5s-1.72,1.5-5,1.5-5-1.11-5-1.5,1.72-1.5,5-1.5M8,1C4.69,1,2,2.12,2,3.5s2.69,2.5,6,2.5,6-1.12,6-2.5S11.31,1,8,1h0Z" fill="#3387c5"/>
  <path d="M13.71,9.15c-.13.27-.33.5-.59.66,0,0,0,0,0,0-.27.4-2,1.26-5.12,1.26s-4.86-.86-5.12-1.26c0,0,0,0,0,0-.28-.13-.49-.34-.65-.6-.15.19-.23.39-.23.6,0,1.21,2.69,2.19,6,2.19s6-.98,6-2.19c0-.23-.1-.46-.29-.67Z" fill="#3387c5"/>
  <path d="M13.71,6.15c-.13.27-.33.5-.59.66,0,0,0,0,0,0-.27.4-2,1.26-5.12,1.26s-4.86-.86-5.12-1.26c0,0,0,0,0,0-.28-.13-.49-.34-.65-.6-.15.19-.23.39-.23.6,0,1.21,2.69,2.19,6,2.19s6-.98,6-2.19c0-.23-.1-.46-.29-.67Z" fill="#3387c5"/>
</svg>